<svg id="Layer_3" data-name="Layer 3" xmlns="http://www.w3.org/2000/svg" viewBox="0 0 200 200"><defs><style>.cls-1{fill:#707172;}</style></defs><title>Icons</title><path class="cls-1" d="M168.3,2.91H31.69C15.79,2.91,3,14.34,3,28.54V171.28c0,14.2,12.79,25.63,28.69,25.63H168.3c15.9,0,28.7-11.43,28.7-25.63V28.54C197,14.34,184.2,2.91,168.3,2.91ZM143.55,29.44A6.44,6.44,0,0,1,150,23h20.64a6.43,6.43,0,0,1,6.45,6.45V50.08a6.43,6.43,0,0,1-6.45,6.45H150a6.44,6.44,0,0,1-6.45-6.45V29.44ZM133,59.54v0.3l-0.43-.3H133ZM99.38,63.39a42.79,42.79,0,1,1-42.79,42.79A42.79,42.79,0,0,1,99.38,63.39Zm85.59,105a17.08,17.08,0,0,1-17.12,17.12H30.91a17.08,17.08,0,0,1-17.12-17.12V79.46h35.3a56.92,56.92,0,1,0,101.76,1.81H185v87.11Z"/></svg>