<svg id="Layer_2" data-name="Layer 2" xmlns="http://www.w3.org/2000/svg" viewBox="0 0 200 200"><defs><style>.cls-1{fill:#707172;}</style></defs><title>Icons</title><g id="post-linkedin"><path class="cls-1" d="M178.29,2.13H21.71A19.63,19.63,0,0,0,2.13,21.71V178.3a19.63,19.63,0,0,0,19.57,19.57H178.29a19.63,19.63,0,0,0,19.57-19.57V21.71A19.63,19.63,0,0,0,178.29,2.13ZM60.85,168.51H31.49V80.43H60.85v88.08ZM46.17,63.79A17.62,17.62,0,1,1,63.79,46.17,17.54,17.54,0,0,1,46.17,63.79ZM168.51,168.51H139.15V116.64a14.68,14.68,0,0,0-29.36,0v51.87H80.43V80.43h29.36V92.17c4.89-7.83,15.66-13.7,24.47-13.7a34.68,34.68,0,0,1,34.25,34.25v55.79h0Z"/></g></svg>