<svg id="Layer_1" data-name="Layer 1" xmlns="http://www.w3.org/2000/svg" viewBox="0 0 200 200"><defs><style>.cls-1{fill:#707172;}</style></defs><title>Icons</title><path class="cls-1" d="M197.5,80.16c-4.33,1-12.19,1.39-21,.42-4.58-17-19.21-38.48-42.08-41.23,11.58-2.63,16.79-9,0-9s-32,20.32-39.15,49.06C40.5,39,4,37.1,42,68.91,24.85,69.31,28.59,79,51.33,89.52,36,90.65,36.41,104.86,62.89,110.86c-7.47.38-12.68,12.73,8.94,16.85C38.29,158.78,2.5,135.56,2.5,135.56s15.64,34.07,76.05,34.07S168.41,125.3,176,101.51c9-1.57,13.62-4.44,18.13-8.62a65,65,0,0,1-16-1.89S191.88,89.14,197.5,80.16Z"/></svg>