<svg id="Layer_5" data-name="Layer 5" xmlns="http://www.w3.org/2000/svg" viewBox="0 0 200 200"><defs><style>.cls-1{fill:#707172;}</style></defs><title>Icons</title><path class="cls-1" d="M196.83,41.83v5.69c-0.13.78-.33,1.56-0.39,2.35-0.76,9-2.15,17.88-5.84,26.05-12.4,27.4-28.46,52.47-49.07,74.49-10.36,11.07-21.59,21.12-34.37,29.37A21.28,21.28,0,0,1,97.2,183c-8.61.75-15.57-2.78-21.52-8.64C68,166.74,62.86,157.5,59.4,147.45c-3.21-9.32-5.7-18.89-8.28-28.42-3.3-12.21-6.31-24.5-9.58-36.72A46.13,46.13,0,0,0,38.17,73c-3.27-6.31-8.76-8.46-15.54-6.31a56.13,56.13,0,0,0-5.69,2.62,2.67,2.67,0,0,1-1.79.4c-3.9-2.24-7.74-4.59-12-7.14C9.73,56.2,15.9,49.92,22.36,44,32,35,42.23,26.73,54,20.58c1.6-.84,3.35-1.85,5.06-1.91a25.09,25.09,0,0,1,20.43,8.66c6.46,7.31,9,16.26,10,25.71s1.47,19,2.52,28.52a110,110,0,0,0,6.46,28.22c1.49,3.8,3.29,7.42,6.32,10.31,2.06,2,4.42,2.57,6.84,1.09a27.56,27.56,0,0,0,6.4-4.88C127.11,106,133.32,93.91,137.86,81c1.53-4.35,2.65-8.84,2.06-13.54-0.55-4.31-3-6.56-7.34-6.52a26.17,26.17,0,0,0-4.22.49c-6.13,1.07-10-2.5-9.3-8.63a13.17,13.17,0,0,1,.4-2.19c3.86-13.33,11.94-23,24.7-28.71,9.57-4.25,19.64-5.29,30-4.82,11.69,0.54,19.1,6.6,21.51,18.07C196.14,37.34,196.45,39.59,196.83,41.83Z"/></svg>